<svg id="Capa_1" enable-background="new 0 0 512 512" height="512" viewBox="0 0 512 512" width="512" xmlns="http://www.w3.org/2000/svg"><g><g><g><path d="m350.466 19.046c0-6.385-7.395-9.926-12.37-5.923l-25.33 20.387c-5.566 4.48-13.501 4.48-19.067 0l-28.166-22.669c-5.566-4.48-13.501-4.48-19.068 0l-28.165 22.668c-5.566 4.48-13.501 4.48-19.068 0l-25.329-20.385c-4.974-4.004-12.37-.463-12.37 5.923 0 0-.009 75.755 94.462 75.755s94.471-75.756 94.471-75.756z" fill="#f7ef87"/></g></g><g><path d="m218.3 33.509c-5.567 4.48-13.501 4.48-19.068 0l-25.329-20.385c-4.974-4.004-12.37-.463-12.37 5.923 0 0-.009 75.755 94.462 75.755-31.387 0-52.867-49.353-37.695-61.293z" fill="#efd176"/></g><g><ellipse cx="256" cy="395.616" fill="#3a5" rx="248.5" ry="88.865"/></g><g><g><path d="m444.5 504.481h-108.5v-40h108.5c11.046 0 20 8.954 20 20 0 11.046-8.954 20-20 20z" fill="#49b76b"/></g></g><g><g><path d="m176 504.481h-108.5c-11.046 0-20-8.954-20-20 0-11.046 8.954-20 20-20h108.5z" fill="#49b76b"/></g></g><g><ellipse cx="253.783" cy="374.431" fill="#5ec783" rx="150" ry="110"/></g><g><path d="m399.255 347.526c-16.369-47.744-75.288-83.094-145.472-83.094-82.843 0-150 49.249-150 110s67.157 110 150 110c15.384 0 30.226-1.702 44.199-4.857-57.257-12.929-99.893-50.316-105.231-95.531 20.215 4.958 41.497 7.54 63.25 7.54 53.597 0 104.352-15.636 143.254-44.058z" fill="#49b76b"/></g><g><path d="m363.644 118.374c-3.966-2.223-6.398-6.439-6.394-10.985v-.075c0-24.853-20.147-45-45-45-15.22 0-28.674 7.557-36.816 19.123-4.446 6.315-11.57 10.151-19.293 10.146-.047 0-.094 0-.141 0s-.094 0-.141 0c-7.723.004-14.847-3.831-19.293-10.146-8.143-11.566-21.596-19.123-36.817-19.123-24.853 0-45 20.147-45 45v.075c.004 4.546-2.428 8.762-6.394 10.985-43.921 24.617-72.355 63.923-72.355 108.21 0 74.558 80.589 135 180 135s180-60.442 180-135c0-44.287-28.433-83.593-72.356-108.21z" fill="#89d47f"/></g><g><path d="m326.161 350.943c-196.837-20.872-232.497-182.753-177.805-232.569-43.923 24.617-72.356 63.923-72.356 108.21 0 74.558 80.589 135 180 135 24.89 0 48.6-3.79 70.161-10.641z" fill="#5ec783"/></g><g><path d="m256 504.481h-80c-11.046 0-20-8.954-20-20 0-11.046 8.954-20 20-20h80z" fill="#5ec783"/></g><g><g><path d="m336 504.481h-80c-11.046 0-20-8.954-20-20 0-11.046 8.954-20 20-20h80c11.046 0 20 8.954 20 20 0 11.046-8.954 20-20 20z" fill="#89d47f"/></g></g><g><g><g><ellipse cx="176.443" cy="145.179" fill="#fff" rx="29.355" ry="23.377"/></g><g><ellipse cx="335.557" cy="145.179" fill="#fff" rx="29.355" ry="23.377"/></g></g><g><path d="m193.552 130.176c-4.143 0-7.5-3.358-7.5-7.5v-12c0-4.142 3.357-7.5 7.5-7.5s7.5 3.358 7.5 7.5v12c0 4.142-3.358 7.5-7.5 7.5z"/></g><g><path d="m318.448 130.176c-4.143 0-7.5-3.358-7.5-7.5v-12c0-4.142 3.357-7.5 7.5-7.5s7.5 3.358 7.5 7.5v12c0 4.142-3.357 7.5-7.5 7.5z"/></g><g><path d="m256 137.319c-8.478 0-16.54-3.672-22.118-10.074-2.722-3.123-2.396-7.86.728-10.582 3.122-2.721 7.86-2.396 10.581.727 2.729 3.132 6.669 4.928 10.81 4.928s8.08-1.796 10.81-4.928c2.721-3.123 7.458-3.448 10.581-.727s3.449 7.458.728 10.582c-5.58 6.403-13.642 10.074-22.12 10.074z"/></g></g><path d="m512 395.616c0-18.014-12.275-35.302-35.498-49.997-18.521-11.72-44.046-21.869-74.34-29.618 21.644-20.413 36.066-45.549 40.16-73.322.604-4.098-2.229-7.91-6.326-8.514-4.096-.601-7.908 2.228-8.514 6.326-4.525 30.703-24.136 59.183-55.218 80.192-31.866 21.539-73.156 33.401-116.264 33.401-95.117 0-172.5-57.196-172.5-127.5 0-40.204 24.976-77.26 68.522-101.667 6.314-3.539 10.233-10.258 10.228-17.602 0-20.678 16.822-37.5 37.5-37.5 12.187 0 23.657 5.959 30.684 15.941 5.878 8.347 15.376 13.329 25.408 13.329h.018.277.017c10.036 0 19.536-4.982 25.413-13.329 7.026-9.981 18.497-15.94 30.684-15.94 20.678 0 37.5 16.822 37.5 37.568-.006 7.276 3.913 13.995 10.228 17.534 37.802 21.187 62.406 53.174 67.504 87.76.604 4.099 4.42 6.932 8.514 6.326 4.098-.604 6.93-4.416 6.326-8.514-5.781-39.221-33.121-75.18-75.01-98.658-1.582-.886-2.563-2.586-2.562-4.517 0-17.638-8.753-33.261-22.133-42.786 15.156-21.624 15.349-44.427 15.349-45.483 0-5.868-3.288-11.088-8.581-13.622-5.292-2.534-11.421-1.821-15.99 1.856l-25.331 20.386c-2.801 2.253-6.862 2.253-9.663 0l-28.168-22.668c-8.249-6.639-20.224-6.639-28.473 0l-28.165 22.668c-2.799 2.253-6.863 2.253-9.662 0l-25.328-20.385c-4.57-3.678-10.696-4.391-15.992-1.856-5.292 2.534-8.58 7.754-8.58 13.621 0 1.049.196 23.858 15.353 45.485-13.383 9.532-22.137 25.175-22.137 42.865.002 1.85-.979 3.55-2.562 4.436-22.972 12.875-42.051 29.833-55.174 49.04-13.747 20.121-21.014 42.844-21.014 65.712 0 32.998 14.566 64.192 41.374 89.406-18.986 4.847-36.029 10.603-50.768 17.165-3.783 1.685-5.485 6.118-3.801 9.902 1.243 2.793 3.983 4.452 6.855 4.452 1.02 0 2.056-.209 3.047-.65 12.169-5.417 26.057-10.271 41.436-14.497-6.819 13.344-10.36 27.609-10.36 42.07 0 31.119 16.584 60.762 45.324 82.55h-41.725c-.208-.083-.419-.16-.637-.225-52.752-15.706-84.245-38.562-84.245-61.141 0-15.033 13.922-27.558 25.601-35.418 3.437-2.313 4.348-6.973 2.034-10.41-2.312-3.437-6.972-4.347-10.409-2.035-21.082 14.189-32.226 30.739-32.226 47.863 0 23.911 20.784 45.574 59.331 62.604-11.187 3.487-19.331 13.941-19.331 26.261 0 15.164 12.337 27.5 27.5 27.5h377c15.163 0 27.5-12.336 27.5-27.5 0-12.32-8.144-22.774-19.331-26.262 38.547-17.029 59.331-38.692 59.331-62.603zm-342.978-376.614c.027-.031.109-.073.18-.036l25.328 20.386c8.248 6.639 20.224 6.639 28.472 0l28.165-22.668c2.799-2.253 6.864-2.253 9.663 0l28.166 22.668c8.249 6.638 20.223 6.639 28.472 0l25.358-20.423c.041 0 .125.041.14.092-.002.216-.304 20.457-13.859 38.586-5.295-1.801-10.96-2.792-16.856-2.792-17.061 0-33.116 8.338-42.949 22.305-3.07 4.361-7.984 6.964-13.151 6.964-.003 0-.006 0-.009 0h-.285c-.004 0-.006 0-.009 0-5.162 0-10.077-2.603-13.147-6.964-9.833-13.967-25.889-22.306-42.949-22.306-5.896 0-11.562.992-16.857 2.793-13.557-18.126-13.861-38.371-13.873-38.605zm-57.739 355.429c0-15.666 5.048-31.152 14.635-45.145 35.085 25.673 81.179 39.798 130.082 39.798 48.805 0 93.564-14.169 127.108-37.623 8.64 13.407 13.175 28.137 13.175 42.971 0 32.228-21.606 63.013-57.797 82.349-.116.062-.223.134-.335.201h-74.651v-55.397c0-4.142-3.357-7.5-7.5-7.5s-7.5 3.358-7.5 7.5v55.397h-79.046c-.007-.004-.013-.008-.021-.012-36.412-19.332-58.15-50.187-58.15-82.539zm39.426 122.55h-83.209c-6.893 0-12.5-5.607-12.5-12.5s5.607-12.5 12.5-12.5h83.209c-1.924 3.753-3.018 8-3.018 12.5s1.094 8.747 3.018 12.5zm80.809 0h-56.326c-6.893 0-12.5-5.607-12.5-12.5s5.607-12.5 12.5-12.5h56.326c-1.924 3.753-3.018 8-3.018 12.5s1.093 8.747 3.018 12.5zm104.482 0h-80c-6.893 0-12.5-5.607-12.5-12.5s5.607-12.5 12.5-12.5h80c6.893 0 12.5 5.607 12.5 12.5s-5.607 12.5-12.5 12.5zm121-12.5c0 6.893-5.607 12.5-12.5 12.5h-84.018c1.924-3.753 3.018-8 3.018-12.5s-1.093-8.747-3.018-12.5h84.018c6.893 0 12.5 5.607 12.5 12.5zm-44.245-27.725c-.218.065-.429.143-.637.225h-46.166c28.738-21.791 45.332-51.449 45.332-82.55 0-14.933-3.806-29.702-11.091-43.445 27.991 7.288 51.417 16.632 68.289 27.308 13.01 8.232 28.519 21.39 28.519 37.321-.001 22.58-31.494 45.436-84.246 61.141z"/></g></svg>