<svg id="Capa_1" enable-background="new 0 0 512.047 512.047" height="512" viewBox="0 0 512.047 512.047" width="512" xmlns="http://www.w3.org/2000/svg"><g><g><g><path d="m392.882 406.407c-28.836 0-54.932 12.048-73.795 31.51-3.605 3.72-3.605 9.759 0 13.479 18.863 19.462 44.958 31.51 73.795 31.51 28.836 0 54.932-12.048 73.795-31.51 3.605-3.72 3.605-9.759 0-13.479-18.863-19.462-44.959-31.51-73.795-31.51z" fill="#7acefa"/></g></g><g><g><path d="m119.165 406.407c-28.836 0-54.932 12.048-73.795 31.51-3.605 3.72-3.605 9.759 0 13.479 18.863 19.462 44.958 31.51 73.795 31.51s54.932-12.048 73.795-31.51c3.605-3.72 3.605-9.759 0-13.479-18.863-19.462-44.959-31.51-73.795-31.51z" fill="#7acefa"/></g></g><g><g><path d="m70.948 383.449c36.417 36.417 84.588 54.158 132.988 53.401 9.251-.145 16.878-7.771 17.022-17.022.757-48.4-16.984-96.571-53.401-132.988s-84.588-54.158-132.988-53.401c-9.251.145-16.878 7.771-17.022 17.022-.758 48.4 16.983 96.571 53.401 132.988z" fill="#a3defe"/></g></g><g><g><path d="m344.49 286.84c-36.417 36.417-54.158 84.588-53.401 132.988.145 9.251 7.771 16.878 17.022 17.022 48.4.757 96.571-16.984 132.988-53.401s54.158-84.588 53.401-132.988c-.145-9.251-7.771-16.878-17.022-17.022-48.4-.757-96.571 16.984-132.988 53.401z" fill="#a3defe"/></g></g><g><path d="m502.996 87.701c4.227-10.205-.619-21.904-10.824-26.131l-111.982-46.385c-51.025-21.135-109.521 3.095-130.656 54.119l-7.654 18.478 130.46 54.038c51.024 21.135 109.521-3.095 130.656-54.119z" fill="#d3596e"/></g><g><path d="m9.051 87.701c-4.227-10.205.619-21.905 10.824-26.132l111.982-46.384c51.024-21.135 109.521 3.095 130.656 54.12l7.654 18.478-130.46 54.038c-51.024 21.134-109.521-3.096-130.656-54.12z" fill="#d3596e"/></g><g><path d="m156.928 504.547c-12.566 0-22.098-11.469-19.643-23.793 11.054-55.475 60.014-97.282 118.738-97.282s107.684 41.808 118.738 97.282c2.456 12.324-7.076 23.793-19.643 23.793z" fill="#ffbf9e"/></g><g><path d="m281.016 386.077c-8.065-1.705-16.426-2.605-24.993-2.605-58.6 0-107.629 41.885-118.724 97.271-2.469 12.326 7.069 23.804 19.64 23.804h59.149c-20.065-51 10.135-106.91 64.928-118.47z" fill="#f7ab8b"/></g><g><path d="m296.089 424.547h-80c-22.091 0-40 17.909-40 40 0 22.091 17.909 40 40 40h80c22.091 0 40-17.909 40-40 0-22.092-17.909-40-40-40z" fill="#b49cdc"/></g><g><path d="m226.225 464.547c0-22.091 17.908-40 40-40h-50.136c-22.091 0-40 17.909-40 40 0 22.091 17.909 40 40 40h50.136c-22.091 0-40-17.909-40-40z" fill="#908cd6"/></g><g><g><path d="m256.023 43.547c-88.366 0-160 71.634-160 160v15.245h320v-15.245c0-88.366-71.634-160-160-160z" fill="#e8899e"/></g></g><g><path d="m286.023 46.367c-9.719-1.844-19.745-2.82-30-2.82-88.365 0-160 71.634-160 160v15.245h60v-15.245c0-78.111 55.977-143.136 130-157.18z" fill="#e26e7e"/></g><g><g><circle cx="401.151" cy="251.178" fill="#ffbf9e" r="36.081"/></g></g><g><g><circle cx="110.893" cy="251.178" fill="#f7ab8b" r="36.081"/></g></g><g><path d="m176.089 160.683c-43.661 9.683-60.613 54.714-60.613 54.714-2.905 11.445-4.453 23.43-4.453 35.779 0 80.081 64.919 145 145 145s145-64.919 145-145c0-12.348-1.548-24.334-4.453-35.779-114.24-.001-176.82-64.397-220.481-54.714z" fill="#ffd4be"/></g><g><path d="m161.023 251.175c0-34.447 12.016-66.084 32.081-90.958-5.997-.79-11.65-.724-17.015.466-43.661 9.683-60.613 54.714-60.613 54.714-2.905 11.445-4.453 23.43-4.453 35.779 0 80.081 64.919 145 145 145 8.526 0 16.878-.743 25-2.154-68.166-11.849-120-71.292-120-142.847z" fill="#ffbf9e"/></g><g><g><g><ellipse cx="176.379" cy="300.143" fill="#eda1ab" rx="29.387" ry="23.403"/></g><g><ellipse cx="335.668" cy="300.143" fill="#eda1ab" rx="29.387" ry="23.403"/></g><g><path d="m279.717 282.162c0-14.643-10.608-16.019-23.693-16.019-13.086 0-23.694 1.376-23.694 16.019s10.608 26.513 23.694 26.513c13.085-.001 23.693-11.871 23.693-26.513z" fill="#4e5660"/></g></g><g><path d="m181.291 279.703c-4.142 0-7.5-3.358-7.5-7.5v-12c0-4.142 3.358-7.5 7.5-7.5s7.5 3.358 7.5 7.5v12c0 4.142-3.358 7.5-7.5 7.5z"/></g><g><path d="m256.023 316.175c-17.2 0-31.193-15.258-31.193-34.013 0-23.519 21.859-23.519 31.193-23.519s31.193 0 31.193 23.519c.001 18.754-13.992 34.013-31.193 34.013zm0-42.532c-15.539 0-16.193 2.611-16.193 8.519 0 10.484 7.264 19.013 16.193 19.013s16.193-8.529 16.193-19.013c.001-5.908-.654-8.519-16.193-8.519z"/></g><g><path d="m330.755 279.703c-4.142 0-7.5-3.358-7.5-7.5v-12c0-4.142 3.358-7.5 7.5-7.5s7.5 3.358 7.5 7.5v12c0 4.142-3.358 7.5-7.5 7.5z"/></g></g><path d="m509.925 90.571c2.811-6.786 2.811-14.261 0-21.047s-8.096-12.072-14.883-14.883l-111.982-46.385c-42.496-17.604-91.058-6.367-121.486 27.89-1.846-.059-3.695-.099-5.55-.099-1.857 0-3.704.041-5.546.102-30.44-34.293-78.898-45.535-121.491-27.893l-111.982 46.384c-6.787 2.811-12.072 8.097-14.883 14.883s-2.811 14.261 0 21.047c8.504 20.532 22.88 37.665 41.572 49.546 15.606 9.919 33.242 15.588 51.487 16.646-4.328 14.854-6.658 30.551-6.658 46.784v10.246c-6.283 3.774-11.536 9.088-15.245 15.415-12.742-2.368-25.777-3.47-38.827-3.268-13.249.208-24.196 11.155-24.403 24.404-.823 52.58 18.922 101.734 55.596 138.409 5.744 5.744 11.844 11.071 18.229 15.999-16.466 5.605-31.428 15.089-43.889 27.947-6.391 6.594-6.391 17.323 0 23.918 21.119 21.79 49.239 33.79 79.181 33.79 3.586 0 7.175-.195 10.742-.544.857 4.382 2.792 8.54 5.715 12.103 5.257 6.408 13.022 10.083 21.306 10.083h198.191c8.284 0 16.049-3.675 21.306-10.083 2.923-3.563 4.858-7.722 5.715-12.105 3.566.349 7.155.547 10.741.547 29.941 0 58.062-12 79.181-33.791 6.39-6.595 6.39-17.324 0-23.918-12.454-12.849-27.425-22.333-43.896-27.942 6.388-4.929 12.49-10.258 18.235-16.004 36.675-36.675 56.419-85.829 55.597-138.408-.207-13.249-11.154-24.197-24.404-24.404-13.042-.203-26.083.902-38.829 3.27-3.709-6.326-8.96-11.64-15.243-15.415v-10.248c0-16.005-2.325-31.739-6.717-46.783 18.448-1.062 36.273-6.834 51.983-16.926 18.479-11.87 32.703-28.907 41.137-49.267zm-493.945-5.741c-1.278-3.085-1.278-6.482 0-9.567s3.681-5.487 6.765-6.765l111.982-46.384c33.013-13.674 70.121-7.185 96.304 15.798-59.668 8.965-109.133 49.516-130.77 104.031-36.632-.506-70.177-23.061-84.281-57.113zm413.752 166.347c0 14.14-10.324 25.908-23.829 28.179 1.714-9.137 2.621-18.554 2.621-28.181 0-9.475-.877-18.914-2.607-28.174 13.497 2.276 23.815 14.041 23.815 28.176zm-39.135-28.337c1.943 9.281 2.927 18.787 2.927 28.335 0 75.818-61.682 137.5-137.5 137.5s-137.5-61.682-137.5-137.5c0-11.314 1.381-22.571 4.104-33.465 1.642-3.999 17.958-41.471 55.085-49.705 16.5-3.66 38.013 5.606 65.247 17.337 37.671 16.226 84.272 36.3 147.637 37.498zm-284.453 56.517c-13.506-2.269-23.832-14.038-23.832-28.179 0-14.137 10.319-25.902 23.819-28.177-1.73 9.26-2.607 18.7-2.607 28.174-.001 9.627.906 19.045 2.62 28.182zm-81.098-28.779c.082-5.234 4.407-9.559 9.64-9.641 11.189-.176 22.361.7 33.315 2.573-.444 2.491-.689 5.05-.689 7.667 0 23.688 19.001 43.009 42.56 43.555 12.93 43.306 44.618 78.592 85.599 96.392-15.212 8.165-28.565 19.313-39.316 32.579-30.259-7.793-57.824-23.478-79.904-45.557-33.779-33.779-51.964-79.083-51.205-127.568zm25.71 195.599c-.785-.81-.785-2.23 0-3.04 13.573-14.004 30.545-23.382 49.208-27.25 14.566 9.005 30.336 16.017 46.914 20.824-7.255 11.618-12.693 24.416-15.926 37.952-3.899.487-7.845.744-11.786.744-25.847-.001-50.142-10.381-68.41-29.23zm314.072 46.273c-2.396 2.921-5.936 4.597-9.709 4.597h-24.523c8.038-8.529 12.992-19.984 12.992-32.5 0-26.191-21.309-47.5-47.5-47.5-4.142 0-7.5 3.358-7.5 7.5s3.358 7.5 7.5 7.5c17.92 0 32.5 14.58 32.5 32.5 0 17.625-14.331 32.203-31.946 32.495-.025 0-.048.004-.073.005h-80.744c-.006 0-.011-.001-.017-.001-17.767-.149-32.221-14.728-32.221-32.499 0-17.92 14.58-32.5 32.5-32.5h50.136c4.142 0 7.5-3.358 7.5-7.5s-3.358-7.5-7.5-7.5h-50.136c-26.191 0-47.5 21.309-47.5 47.5 0 12.54 4.934 23.984 12.951 32.5h-24.612c-3.774 0-7.313-1.675-9.709-4.597-2.36-2.877-3.3-6.606-2.578-10.23 7.588-38.08 34.841-70.166 71.202-83.927 12.807 3.502 26.277 5.383 40.18 5.383 13.902 0 27.37-1.88 40.177-5.382 36.372 13.766 63.613 45.823 71.206 83.927.724 3.623-.215 7.352-2.576 10.229zm96.463-49.313c.785.81.785 2.23 0 3.04-18.269 18.849-42.563 29.229-68.409 29.229-3.94 0-7.888-.249-11.784-.736-3.233-13.543-8.668-26.343-15.922-37.961 16.574-4.806 32.341-11.817 46.905-20.821 18.663 3.871 35.646 13.254 49.21 27.249zm16.069-202.199c5.234.082 9.559 4.407 9.641 9.641.759 48.484-17.426 93.789-51.205 127.567-22.075 22.075-49.642 37.762-79.896 45.555-10.751-13.267-24.108-24.409-39.326-32.575 40.982-17.8 72.671-53.087 85.601-96.393 23.558-.548 42.557-19.868 42.557-43.555 0-2.617-.245-5.176-.689-7.667 10.957-1.872 22.132-2.745 33.317-2.573zm-124.178-173.849c-3.372-2.405-8.055-1.621-10.461 1.751-2.405 3.372-1.622 8.056 1.751 10.461 40.107 28.606 64.051 75.053 64.051 124.246v4.686c-2.398-.411-4.859-.636-7.373-.636-1.589 0-3.194.087-4.772.259-.078.008-.153.026-.23.037-63.114-.09-109.76-20.177-147.255-36.327-29.722-12.802-53.198-22.912-74.429-18.205-38.432 8.524-57.599 41.37-63.755 54.241-2.449.01-4.848.231-7.187.631v-4.686c0-84.089 68.411-152.5 152.5-152.5 22.116 0 43.441 4.627 63.385 13.754 3.766 1.723 8.217.068 9.941-3.699s.067-8.217-3.699-9.941c-14.287-6.538-29.219-10.961-44.61-13.257 26.189-22.945 63.349-29.429 96.279-15.789l111.982 46.384c3.084 1.278 5.487 3.68 6.765 6.765 1.277 3.085 1.277 6.482 0 9.567-14.301 34.527-47.207 56.683-84.348 57.112-11.761-29.674-31.893-55.852-58.535-74.854z"/></g></svg>