<svg id="Capa_1" enable-background="new 0 0 512 512" height="512" viewBox="0 0 512 512" width="512" xmlns="http://www.w3.org/2000/svg"><g><g><path d="m156.904 504.5c-12.566 0-22.098-11.469-19.643-23.793 11.054-55.475 60.014-97.282 118.738-97.282s107.684 41.808 118.738 97.282c2.456 12.324-7.076 23.793-19.643 23.793z" fill="#e26e7e"/></g><g><path d="m280.993 386.03c-8.065-1.705-16.426-2.605-24.993-2.605-58.6 0-107.629 41.885-118.724 97.271-2.469 12.326 7.069 23.804 19.64 23.804h28.008c.001-58.166 41.276-106.909 96.069-118.47z" fill="#d3596e"/></g><g><circle cx="335.126" cy="413.5" fill="#f7ef87" r="40"/></g><g><circle cx="176.874" cy="413.5" fill="#f7ef87" r="40"/></g><g><path d="m223 454.062-15.173-58.167h96.334l-15.161 58.167z" fill="#ffbf9e"/></g><g><path d="m287.585 480.863c27.323-23.708 32.641-62.417 32.726-84.968h-16.15l-48.167 58.167 16.663 24.867c3.367 5.025 10.36 5.898 14.928 1.934z" fill="#e8899e"/></g><g><path d="m224.403 480.863c-27.323-23.708-32.64-62.417-32.726-84.968h16.15l48.167 58.167-16.663 24.867c-3.367 5.025-10.36 5.898-14.928 1.934z" fill="#e8899e"/></g><g><circle cx="411.127" cy="234.16" fill="#ffbf9e" r="36.081"/></g><g><circle cx="100.87" cy="234.16" fill="#f7ab8b" r="36.081"/></g><g><path d="m422.847 257.44c-2.535-8.464-10.324-14.261-19.159-14.261h-147.688-147.688c-8.835 0-16.624 5.797-19.159 14.261-16.405 54.764 9.322 113.393 60.795 138.267 27.122 13.107 62.021 22.717 106.051 22.717 44.031 0 78.93-9.61 106.052-22.717 51.474-24.874 77.201-83.502 60.796-138.267z" fill="#383c43"/></g><g><path d="m212.734 395.708c-51.473-24.875-77.2-83.503-60.795-138.268l4.272-14.261h-47.898c-8.835 0-16.624 5.797-19.159 14.261-16.405 54.764 9.322 113.393 60.795 138.268 27.122 13.107 62.021 22.717 106.051 22.717 11.03 0 21.487-.604 31.392-1.714-29.634-3.321-54.331-11.179-74.658-21.003z" fill="#282d35"/></g><g><path d="m400.997 250.263c-.26-44.555-20.32-84.09-51.799-110.433l-186.256.095c-31.751 26.599-51.942 66.543-51.942 111.203 0 .38.001.76.004 1.14.234 30.328 25.027 54.732 55.355 54.732h179.279c30.482 0 55.205-24.643 55.359-55.124.004-.537.004-1.075 0-1.613z" fill="#ffd4be"/></g><g><path d="m213.379 139.925 135.849-.07c-.01-.008-.02-.017-.03-.026l-186.256.095c-31.751 26.6-51.942 66.544-51.942 111.204 0 .38.001.76.004 1.14.234 30.328 25.027 54.732 55.355 54.732h4.31c-6.155-21.773-9.232-38.437-9.232-55.872 0-44.66 20.191-84.604 51.942-111.203z" fill="#ffbf9e"/></g><g><path d="m256 7.5c-102.536 0-119.639 83.537-175.852 98.02-9.369 2.414-15.147 11.818-13.171 21.289l16 76.691h346.045l16.001-76.691c1.976-9.471-3.802-18.875-13.171-21.289-56.213-14.483-73.316-98.02-175.852-98.02z" fill="#e26e7e"/></g><g><path d="m241.032 183.5c-101.229-26.56-101.722-121.237-65.049-152.911-38.723 25.852-58.788 65.386-95.835 74.931-9.369 2.414-15.147 11.818-13.171 21.289l16 76.691h158.055z" fill="#d3596e"/></g><g><path d="m306 87.795c0-28.286-23.488-51.086-52.023-49.96-25.752 1.016-46.752 21.881-47.924 47.626-.978 21.492 11.624 40.154 29.947 48.162 0 10.861 8.805 19.666 19.666 19.666h.667c10.861 0 19.666-8.805 19.666-19.666 17.657-7.717 30.001-25.326 30.001-45.828z" fill="#fff"/></g><g><path d="m246.053 85.461c.883-19.402 13.03-36.028 29.983-43.48-6.713-2.94-14.192-4.457-22.06-4.146-25.752 1.016-46.752 21.881-47.924 47.626-.978 21.491 11.624 40.154 29.947 48.162 0 10.861 8.805 19.667 19.667 19.667h.667c10.861 0 19.666-8.805 19.666-19.667-18.322-8.008-30.923-26.67-29.946-48.162z" fill="#fcf2d0"/></g><g><g><path d="m233.551 109.042c-4.142 0-7.5-3.358-7.5-7.5v-12c0-4.142 3.358-7.5 7.5-7.5s7.5 3.358 7.5 7.5v12c0 4.143-3.358 7.5-7.5 7.5z"/></g><g><path d="m278.448 109.042c-4.143 0-7.5-3.358-7.5-7.5v-12c0-4.142 3.357-7.5 7.5-7.5s7.5 3.358 7.5 7.5v12c0 4.143-3.357 7.5-7.5 7.5z"/></g></g><g><path d="m446 213.5h-380c-11.046 0-20-8.954-20-20 0-11.046 8.954-20 20-20h380c11.046 0 20 8.954 20 20 0 11.046-8.954 20-20 20z" fill="#e8899e"/></g><g><path d="m221.032 193.5c0-11.046 8.954-20 20-20h-175.032c-11.046 0-20 8.954-20 20s8.954 20 20 20h175.032c-11.046 0-20-8.954-20-20z" fill="#e26e7e"/></g><g><path d="m207.314 249.111-24.065-6.448c-3.995-1.069-8.113 1.302-9.186 5.304-1.072 4.001 1.302 8.113 5.303 9.186l7.078 1.897c-.252.75-.394 1.551-.394 2.387v10.366c0 4.142 3.358 7.5 7.5 7.5s7.5-3.358 7.5-7.5v-8.839l2.381.638c.65.174 1.303.257 1.946.257 3.311 0 6.342-2.21 7.24-5.561 1.073-4.002-1.301-8.114-5.303-9.187z"/><path d="m337.936 247.967c-1.071-4.001-5.183-6.373-9.186-5.304l-24.065 6.448c-4.001 1.072-6.375 5.185-5.303 9.186.897 3.351 3.928 5.561 7.239 5.561.643 0 1.296-.083 1.946-.257l2.381-.638v8.839c0 4.142 3.357 7.5 7.5 7.5s7.5-3.358 7.5-7.5v-10.366c0-.835-.142-1.636-.394-2.386l7.079-1.897c4.001-1.073 6.375-5.185 5.303-9.186z"/></g><g><path d="m145.232 289.522c17.134 17.149 44.928 17.155 62.07.014 13.042-13.042 34.188-13.042 47.23 0l.108.108c13.042 13.042 13.042 34.188 0 47.23l-6.521 6.521c-27.07 27.07-70.959 27.07-98.029 0-13.101-13.101-19.861-30.142-20.28-47.309-.199-8.134 9.671-12.319 15.422-6.564z" fill="#4e5660"/></g><g><path d="m366.768 289.522c-17.134 17.149-44.928 17.155-62.07.014-13.042-13.042-34.188-13.042-47.23 0l-.108.108c-13.042 13.042-13.042 34.188 0 47.23l6.521 6.521c27.07 27.07 70.959 27.07 98.029 0 13.101-13.101 19.861-30.142 20.28-47.309.199-8.134-9.671-12.319-15.422-6.564z" fill="#4e5660"/></g><g><path d="m228.946 138.539c2.319 12.642 13.419 22.251 26.721 22.251h.667c13.304 0 24.405-9.612 26.722-22.256 18.632-9.938 30.444-29.392 30.444-50.738 0-15.789-6.27-30.512-17.655-41.457-11.379-10.94-26.358-16.613-42.164-15.998-29.564 1.166-53.775 25.228-55.12 54.779-1.024 22.509 10.781 43.012 30.385 53.419zm-15.401-52.737c.994-21.833 18.883-39.611 40.727-40.473.582-.023 1.161-.034 1.739-.034 11.049 0 21.446 4.174 29.438 11.857 8.416 8.09 13.051 18.973 13.051 30.643 0 16.893-10.011 32.184-25.504 38.956-2.73 1.193-4.496 3.891-4.496 6.872 0 6.708-5.458 12.167-12.167 12.167h-.667c-6.708 0-12.167-5.458-12.167-12.167 0-2.981-1.765-5.679-4.497-6.872-16.272-7.113-26.265-23.186-25.457-40.949z"/><path d="m473.5 193.5c0-15.164-12.337-27.5-27.5-27.5h-1.492l7.857-37.659c2.808-13.453-5.381-26.667-18.642-30.084-19.914-5.131-34.71-20.087-51.841-37.405-28.216-28.523-60.197-60.852-125.882-60.852s-97.667 32.329-125.883 60.853c-17.131 17.317-31.926 32.273-51.841 37.404-13.261 3.417-21.449 16.631-18.642 30.083l7.858 37.66h-1.492c-15.164 0-27.5 12.336-27.5 27.5 0 12.948 8.998 23.828 21.067 26.733-1.501 4.452-2.278 9.145-2.278 13.928 0 15.337 8.094 29.443 21.001 37.274-3.707 23.384-.666 47.502 8.941 69.365 9.756 22.201 25.807 40.955 45.96 54.039-2.506 5.867-3.816 12.208-3.816 18.661 0 12.297 4.698 23.516 12.392 31.961-5.521 10.659-9.512 22-11.86 33.781-1.604 8.047.471 16.312 5.692 22.676 5.257 6.408 13.022 10.083 21.306 10.083h198.191c8.284 0 16.05-3.675 21.307-10.083 5.221-6.364 7.295-14.628 5.691-22.675-2.349-11.786-6.334-23.127-11.855-33.786 7.691-8.444 12.387-19.661 12.387-31.956 0-6.443-1.307-12.791-3.813-18.66 8.552-5.537 16.38-12.076 23.351-19.59 2.817-3.037 2.64-7.782-.397-10.599-3.036-2.818-7.782-2.64-10.599.397-9.217 9.935-20.11 17.978-32.38 23.907-30.166 14.578-64.749 21.97-102.788 21.97s-72.622-7.392-102.788-21.97c-48.402-23.391-72.321-77.796-56.874-129.363 1.11-3.705 3.774-6.561 7.163-7.961l.003.695c.128 16.626 6.958 32.571 18.82 44.197.545 19.705 8.513 38.226 22.462 52.175 14.509 14.509 33.799 22.5 54.317 22.5s39.809-7.99 54.318-22.5l2.579-2.579 2.578 2.578c14.509 14.509 33.799 22.5 54.317 22.5 20.52 0 39.81-7.991 54.317-22.5 13.964-13.963 21.935-32.506 22.466-52.233 11.901-11.711 18.734-27.792 18.819-44.547 0-.096 0-.19 0-.286 3.39 1.4 6.055 4.256 7.164 7.962 8.365 27.924 5.348 57.437-8.498 83.102-1.967 3.646-.605 8.195 3.04 10.162 1.132.611 2.352.901 3.554.901 2.668 0 5.252-1.428 6.607-3.94 13.103-24.289 17.672-51.606 13.36-78.393 12.896-7.833 20.983-21.932 20.983-37.263 0-4.785-.778-9.476-2.278-13.927 12.071-2.906 21.071-13.787 21.071-26.736zm-108.694 298.903c-2.396 2.921-5.936 4.597-9.71 4.597h-198.192c-3.774 0-7.313-1.675-9.709-4.597-2.36-2.877-3.3-6.606-2.578-10.23 1.88-9.437 4.968-18.548 9.162-27.187 6.842 3.824 14.716 6.014 23.096 6.014 7.046 0 13.882-1.537 20.144-4.477 5.185 10.816 12.409 21.276 22.469 30.005 3.23 2.802 7.342 4.32 11.557 4.32.772 0 1.549-.051 2.324-.155 4.963-.663 9.408-3.43 12.194-7.589l10.432-15.569 10.432 15.57c2.787 4.16 7.232 6.926 12.196 7.589.774.104 1.55.154 2.322.154 4.214 0 8.327-1.519 11.556-4.321 10.058-8.727 17.288-19.178 22.479-30.007 6.264 2.941 13.103 4.479 20.147 4.479 8.379 0 16.254-2.189 23.095-6.014 4.193 8.638 7.281 17.748 9.161 27.187.722 3.625-.217 7.354-2.577 10.231zm-143.571-68.557 25.414 30.69-13.549 20.219c-.511.764-1.218 1.004-1.721 1.071-.434.06-1.276.054-2.062-.627-17.271-14.985-24.764-36.591-27.933-54.552 6.494 1.309 13.111 2.378 19.851 3.199zm89.372-3.197c-3.187 18.087-10.71 39.601-27.938 54.55-.785.682-1.63.688-2.061.627-.503-.067-1.21-.308-1.722-1.071l-13.547-20.219 25.412-30.688c6.742-.821 13.361-1.891 19.856-3.199zm54.708-18.188c.106-.051.207-.109.313-.16 1.307 3.567 1.998 7.355 1.998 11.199 0 17.92-14.579 32.5-32.5 32.5-5.112 0-10.063-1.183-14.552-3.438 2.932-8.914 4.718-17.696 5.784-25.616 13.614-3.698 26.622-8.524 38.957-14.485zm-95.487 23.136-13.834 16.706-13.834-16.706c4.567.211 9.177.328 13.84.328 4.659 0 9.265-.117 13.828-.328zm-84.195-8.654c1.061 7.878 2.848 16.671 5.794 25.622-4.488 2.254-9.438 3.434-14.552 3.434-17.92 0-32.5-14.58-32.5-32.5 0-3.85.684-7.637 1.991-11.203.108.052.212.111.32.163 12.331 5.961 25.336 10.786 38.947 14.484zm-103.664-161.655c-.023.078-.044.157-.068.236-6.002-5.343-9.612-13.076-9.612-21.363 0-4.627 1.119-9.114 3.223-13.161h30.981c-.991 4.948-1.743 9.949-2.24 14.987-10.473 1.529-19.166 8.893-22.284 19.301zm73.424 82.803c-11.273-11.274-17.696-26.257-18.085-42.189-.006-.248-.024-1.001.911-1.402.642-.276 1.218-.168 1.708.323 9.704 9.711 22.608 15.062 36.336 15.064h.012c13.724 0 26.626-5.344 36.331-15.049 4.892-4.891 11.395-7.585 18.312-7.585 5.484 0 10.704 1.699 15.071 4.838-7.903 13.066-7.838 29.626.19 42.637l-3.362 3.362c-24.104 24.104-63.322 24.104-87.424.001zm219.299-42.189c-.389 15.933-6.812 30.916-18.086 42.189-11.675 11.676-27.198 18.106-43.711 18.106-16.512 0-32.035-6.43-43.711-18.106l-6.521-6.52c-10.097-10.097-10.097-26.526-.013-36.611l.121-.12c4.891-4.891 11.394-7.585 18.311-7.585 6.918 0 13.421 2.694 18.312 7.585 9.705 9.705 22.606 15.049 36.332 15.049h.012c13.729-.003 26.633-5.353 36.336-15.065.488-.489 1.063-.6 1.707-.323.936.4.917 1.154.911 1.401zm7.736-13.688c-.855-.575-1.766-1.085-2.741-1.502-6.261-2.682-13.416-1.304-18.225 3.51-6.87 6.876-16.008 10.665-25.729 10.667-.003 0-.005 0-.008 0-9.718 0-18.854-3.784-25.725-10.655-7.725-7.725-17.994-11.979-28.919-11.979-9.208 0-17.945 3.033-25.084 8.602-7.144-5.572-15.878-8.602-25.082-8.602-10.924 0-21.194 4.254-28.918 11.979-6.872 6.872-16.006 10.655-25.725 10.655-.002 0-.006 0-.008 0-9.72-.002-18.857-3.791-25.728-10.667-4.81-4.814-11.962-6.192-18.225-3.51-.989.424-1.913.943-2.779 1.528-6.985-8.402-10.944-19.019-11.029-30.029l-.004-1.083c0-10.175 1.115-20.288 3.313-30.128h268.405c2.112 9.562 3.221 19.396 3.279 29.317.004.507.004 1.013.001 1.521-.056 11.143-4.032 21.89-11.069 30.376zm47.67-26.692c-.023-.078-.044-.156-.067-.233-3.116-10.404-11.803-17.766-22.271-19.3-.492-5.041-1.233-10.044-2.214-14.989h30.937c2.105 4.046 3.224 8.532 3.224 13.161.001 8.287-3.608 16.018-9.609 21.361zm15.902-49.522h-380c-6.893 0-12.5-5.607-12.5-12.5s5.607-12.5 12.5-12.5h48.807c4.142 0 7.5-3.358 7.5-7.5s-3.358-7.5-7.5-7.5h-31.992l-8.497-40.723c-1.167-5.593 2.215-11.081 7.7-12.494 23.924-6.164 40.847-23.27 58.763-41.381 27.43-27.729 55.795-56.402 115.219-56.402s87.788 28.673 115.219 56.402c17.916 18.111 34.839 35.217 58.763 41.381 5.485 1.414 8.867 6.901 7.7 12.495l-8.496 40.722h-284.379c-4.142 0-7.5 3.358-7.5 7.5s3.358 7.5 7.5 7.5h301.193c6.893 0 12.5 5.607 12.5 12.5s-5.607 12.5-12.5 12.5z"/></g></g></svg>